# xmcd
#
# Track frame offsets:
#	150
#	17639
#	31413
#	48248
#	60277
#	75230
#	90057
#	106724
#	124434
#	141431
#	157385
#
# Disc length: 2285 seconds
#
# Revision: 0
# Processed by: cddbd v1.5.1PL0 Copyright (c) Steve Scherf et al.
# Submitted via: audiograbber 1.83.01
#
DISCID=7f08eb0b
DTITLE=Wilkinsons, The - Nothing But Love - Wilkinsons, The - Nothing But Love
DYEAR=1998
DGENRE=Country
TTITLE0=26 Cents
TTITLE1=Boy Oh Boy
TTITLE2=Fly
TTITLE3=Don't I Have A Heart
TTITLE4=The Yodelin' Blues
TTITLE5=Nothing But Love (Standing In The Way)
TTITLE6=The Word
TTITLE7=Williamstown
TTITLE8=Then There's You
TTITLE9=Back On My Feet
TTITLE10=One Faithful Heart
EXTD=
EXTT0=
EXTT1=
EXTT2=
EXTT3=
EXTT4=
EXTT5=
EXTT6=
EXTT7=
EXTT8=
EXTT9=
EXTT10=
PLAYORDER=
